<?xml version="1.0" encoding="UTF-8" standalone="no"?>
<!-- Created with Inkscape (http://www.inkscape.org/) -->

<svg
   width="121.92mm"
   height="128.5mm"
   viewBox="0 0 121.92 128.5"
   version="1.1"
   id="svg1"
   inkscape:version="1.4.2 (f4327f4, 2025-05-13)"
   sodipodi:docname="Maestro_24_v0.svg.2026_04_25_10_19_17.1.svg"
   xmlns:inkscape="http://www.inkscape.org/namespaces/inkscape"
   xmlns:sodipodi="http://sodipodi.sourceforge.net/DTD/sodipodi-0.dtd"
   xmlns="http://www.w3.org/2000/svg"
   xmlns:svg="http://www.w3.org/2000/svg">
  <sodipodi:namedview
     id="namedview1"
     pagecolor="#ffffff"
     bordercolor="#000000"
     borderopacity="0.25"
     inkscape:showpageshadow="2"
     inkscape:pageopacity="0.0"
     inkscape:pagecheckerboard="0"
     inkscape:deskcolor="#d1d1d1"
     inkscape:document-units="mm"
     inkscape:zoom="1.6275884"
     inkscape:cx="237.7751"
     inkscape:cy="261.12253"
     inkscape:window-width="1463"
     inkscape:window-height="1415"
     inkscape:window-x="862"
     inkscape:window-y="433"
     inkscape:window-maximized="0"
     inkscape:current-layer="layer2-8" />
  <defs
     id="defs1" />
  <g
     inkscape:label="Capa 1"
     inkscape:groupmode="layer"
     id="layer1"
     style="display:inline">
    <g
       inkscape:groupmode="layer"
       id="layer5"
       inkscape:label="comp"
       style="display:inline"
       transform="matrix(0.26458333,0,0,0.26458333,11.90625,4.7625)">
      <g
         id="layer2-8"
         style="display:inline"
         transform="translate(-4.3008417,-17.817773)">
        <g
           id="layer4"
           transform="scale(1.1177403,1)"
           style="display:inline">
          <rect
             width="411.56232"
             height="485.79999"
             fill="#1a1a2e"
             id="rect1"
             style="fill:#65300a;fill-opacity:1;stroke-width:1.09127"
             x="-36.279263"
             y="0" />
          <line
             x1="11.861302"
             y1="23.598724"
             x2="336.8613"
             y2="23.598724"
             stroke="#444466"
             stroke-width="1"
             id="line1"
             style="stroke:#f7e59c;stroke-opacity:1" />
          <line
             x1="8.1386976"
             y1="463.88303"
             x2="333.1387"
             y2="463.88303"
             stroke="#444466"
             stroke-width="1"
             id="line2"
             style="stroke:#f6dd93;stroke-opacity:1" />
        </g>
        <path
           style="font-style:italic;font-weight:bold;font-size:14px;font-family:Arial;-inkscape-font-specification:'Arial, Bold Italic';baseline-shift:baseline;text-anchor:middle;display:inline;overflow:visible;vector-effect:none;fill:#f4842a;enable-background:accumulate;stop-color:#000000"
           d="m 143.33691,18 h -1.95507 L 141.01953,9.6259766 139.42676,18 h -1.85938 l 2.0918,-10.0214844 h 2.93945 l 0.30762,7.0205074 3.41797,-7.0205074 h 2.97363 L 147.19922,18 h -1.87988 l 1.97558,-8.3125 z m 12.46192,-2.214844 h -3.97168 L 150.62402,18 h -2.11914 l 5.66699,-10.0214844 h 2.29004 L 158.08887,18 h -1.95508 z m -0.25293,-1.667968 -0.58106,-4.033204 -2.41992,4.033204 z M 159.34668,18 161.43848,7.9785156 h 7.43066 l -0.34863,1.6748047 h -5.36621 l -0.47852,2.2763677 h 5.18848 l -0.34864,1.674804 h -5.18847 l -0.62891,2.720703 h 5.83106 L 167.17383,18 Z m 9.65234,-3.24707 1.96192,-0.102539 q 0.041,0.936523 0.32129,1.264648 0.45117,0.533203 1.66797,0.533203 1.01171,0 1.46289,-0.362305 0.45117,-0.362304 0.45117,-0.874999 0,-0.444336 -0.36914,-0.751954 -0.25977,-0.225586 -1.42871,-0.731445 -1.16211,-0.505859 -1.70215,-0.84082 -0.53321,-0.341797 -0.84082,-0.881836 -0.30762,-0.540039 -0.30762,-1.264649 0,-1.2646481 0.91602,-2.0986324 0.91601,-0.8339844 2.65234,-0.8339844 1.76367,0 2.72754,0.8271484 0.9707,0.8271485 1.0664,2.2011724 l -1.97558,0.08887 q -0.0752,-0.717774 -0.51953,-1.1005862 -0.44434,-0.3828125 -1.3125,-0.3828125 -0.85449,0 -1.22364,0.3007812 -0.3623,0.3007815 -0.3623,0.7587895 0,0.430664 0.33496,0.710937 0.33496,0.287109 1.4834,0.786133 1.72949,0.745117 2.20117,1.209961 0.7041,0.683594 0.7041,1.756836 0,1.326172 -1.05273,2.269531 -1.0459,0.936523 -2.91895,0.936523 -1.29199,0 -2.24218,-0.430664 -0.94336,-0.4375 -1.33301,-1.209961 -0.38965,-0.77246 -0.36231,-1.777343 z M 182.38379,18 h -2.06445 l 1.75,-8.3466797 h -2.93946 l 0.34864,-1.6748047 h 7.8955 l -0.34863,1.6748047 h -2.89844 z m 6.2959,0 h -2.06446 l 2.09864,-10.0214844 h 4.45019 q 1.14844,0 1.78418,0.2392578 0.64258,0.2324219 1.03223,0.8613282 0.39648,0.6289062 0.39648,1.5244144 0,1.27832 -0.76562,2.112304 -0.76563,0.827149 -2.31738,1.025391 0.39648,0.355469 0.74511,0.936523 0.69043,1.175782 1.53809,3.322266 h -2.21485 q -0.2666,-0.847656 -1.04589,-2.645508 -0.42383,-0.970703 -0.90235,-1.305664 -0.29394,-0.198242 -1.02539,-0.198242 h -0.84082 z m 1.18261,-5.65332 h 1.09375 q 1.66114,0 2.20118,-0.198242 0.54687,-0.198243 0.85449,-0.622071 0.30762,-0.423828 0.30762,-0.888672 0,-0.546875 -0.44434,-0.8203122 -0.27344,-0.1640625 -1.18262,-0.1640625 h -2.26953 z m 7.47168,1.722656 q 0,-0.888672 0.26661,-1.873047 0.34863,-1.319336 1.05957,-2.290039 0.71777,-0.9707031 1.80468,-1.53125 1.08692,-0.5673828 2.47461,-0.5673828 1.85938,0 3.00098,1.1552734 1.14844,1.1552734 1.14844,3.0625004 0,1.585937 -0.74512,3.069336 -0.74512,1.483398 -2.02344,2.283203 -1.27832,0.799804 -2.8916,0.799804 -1.40137,0 -2.35156,-0.635742 -0.9502,-0.635742 -1.34668,-1.572265 -0.39649,-0.94336 -0.39649,-1.900391 z m 2.03711,-0.04102 q 0,1.032227 0.62891,1.729493 0.62891,0.697265 1.6543,0.697265 0.83398,0 1.59961,-0.546875 0.77246,-0.553711 1.27148,-1.667969 0.50586,-1.121093 0.50586,-2.180664 0,-1.182617 -0.63574,-1.852539 -0.63574,-0.6767576 -1.62012,-0.6767576 -1.51074,0 -2.46094,1.4082036 -0.94336,1.408203 -0.94336,3.089843 z"
           id="path5-8" />
        <path
           style="font-style:italic;font-weight:bold;font-size:14px;font-family:Arial;-inkscape-font-specification:'Arial, Bold Italic';baseline-shift:baseline;text-anchor:middle;display:inline;overflow:visible;vector-effect:none;fill:#f4842a;enable-background:accumulate;stop-color:#000000"
           d="m 173.78516,7.3085937 c -1.23761,0 -2.26327,0.3010239 -2.99024,0.9628907 -0.70371,0.6406886 -1.08008,1.5049299 -1.08008,2.4687496 0,0.553829 0.12232,1.068123 0.375,1.511719 0.24412,0.428568 0.58449,0.787785 1.00391,1.056641 l 0.004,0.002 0.004,0.002 c 0.40074,0.248558 0.97985,0.531001 1.76563,0.873047 0.76682,0.331842 1.26824,0.622131 1.30078,0.650391 l 0.004,0.0039 0.004,0.0039 c 0.15514,0.129283 0.18945,0.209425 0.18945,0.367188 0,0.19513 -0.0546,0.314934 -0.26562,0.484375 -0.15852,0.127296 -0.53365,0.251953 -1.14844,0.251953 -0.73816,0 -1.1295,-0.169204 -1.28711,-0.355469 l -0.002,-0.002 c -0.0421,-0.04928 -0.17591,-0.383778 -0.20117,-0.960938 l -0.0234,-0.503906 -2.92578,0.152344 -0.0117,0.46289 c -0.0201,0.737959 0.11291,1.418612 0.41406,2.015625 0.31575,0.625952 0.86335,1.109634 1.57031,1.4375 l 0.002,0.002 h 0.002 c 0.71107,0.322286 1.53038,0.476563 2.44727,0.476563 1.33203,0 2.44613,-0.341156 3.2539,-1.064453 0.78855,-0.706619 1.21875,-1.626162 1.21875,-2.642578 0,-0.823917 -0.29151,-1.566627 -0.85351,-2.113281 -0.43666,-0.430326 -1.18032,-0.807823 -2.35157,-1.3125 h -0.002 c -0.74834,-0.325325 -1.23799,-0.606341 -1.35547,-0.707032 l -0.004,-0.002 -0.002,-0.002 c -0.12664,-0.105965 -0.15625,-0.168692 -0.15625,-0.326172 0,-0.172771 0.0396,-0.253046 0.1836,-0.373047 6.1e-4,-5.06e-4 -6.1e-4,-0.0014 0,-0.002 0.10098,-0.08105 0.39563,-0.1855467 0.90429,-0.1855467 0.50529,0 0.81015,0.1116137 0.98438,0.2617187 0.18971,0.163448 0.30915,0.387257 0.34961,0.773438 l 0.0488,0.46875 2.95898,-0.132813 -0.0371,-0.511719 c -0.0714,-1.0249847 -0.49462,-1.9102322 -1.23828,-2.5449216 -0.75695,-0.6495828 -1.79879,-0.9472656 -3.05273,-0.9472657 z m 29.15429,0 c -0.99327,0 -1.90308,0.2043977 -2.70508,0.6230469 -0.78815,0.4069397 -1.45422,0.9713327 -1.97656,1.6777344 l -0.002,0.00195 c -0.51474,0.702821 -0.89254,1.525595 -1.13867,2.457031 -0.18731,0.692188 -0.28321,1.360118 -0.28321,2.001954 0,0.707069 0.14782,1.409165 0.43555,2.093749 0.30439,0.718998 0.82823,1.323915 1.5293,1.792969 0.72788,0.487002 1.61905,0.720703 2.6289,0.720703 1.15815,0 2.22582,-0.291632 3.15821,-0.875 0.93301,-0.583757 1.67303,-1.425166 2.20508,-2.484375 0.52882,-1.052799 0.79882,-2.157372 0.79882,-3.292968 0,-1.371844 -0.4323,-2.5463148 -1.29492,-3.414063 -0.85634,-0.8659302 -2.01294,-1.3027343 -3.35547,-1.3027344 z M 139.25195,7.4785156 136.95312,18.5 h 2.88672 l 0.86524,-4.552734 0.19726,4.552734 h 2.75 L 145.71875,14.160156 144.6875,18.5 h 2.91797 l 2.30859,-11.0214844 h -3.90234 l -2.69141,5.5273434 -0.24219,-5.5273434 z m 14.62891,0 L 147.64844,18.5 h 3.27343 l 1.20313,-2.214844 h 3.24414 L 155.70312,18.5 h 2.97266 L 156.88672,7.4785156 Z m 7.15039,0 L 158.73242,18.5 h 8.8457 l 0.56836,-2.675781 h -5.81836 l 0.39649,-1.720703 h 5.19726 l 0.55665,-2.673828 h -5.18555 l 0.26758,-1.277344 h 5.36718 l 0.55664,-2.6738284 z m 18.04102,0 -0.55665,2.6738284 h 2.9375 l -1.75,8.347656 h 3.0879 l 1.74218,-8.347656 h 2.89844 l 0.55664,-2.6738284 z m 9.23632,0 L 186,18.5 h 3.08594 l 0.86718,-4.148437 h 0.43555 c 0.43907,0 0.70045,0.0859 0.74024,0.111328 0.18988,0.134006 0.466,0.490558 0.72851,1.091797 0.51584,1.190165 0.8612,2.06744 1.02735,2.595703 L 192.99609,18.5 h 3.31641 l -0.26953,-0.683594 c -0.57069,-1.445115 -1.08995,-2.571205 -1.57227,-3.392578 l -0.002,-0.002 v -0.002 c -0.0948,-0.15795 -0.2142,-0.256108 -0.31641,-0.394531 0.72951,-0.199103 1.37711,-0.485552 1.82618,-0.970703 h 0.002 c 0.59648,-0.649741 0.89648,-1.499138 0.89648,-2.451172 0,-0.6692481 -0.15081,-1.277986 -0.4707,-1.7871097 l -0.002,-0.00195 C 196.09483,8.3160773 195.65268,7.9429775 195.12109,7.75 194.60489,7.5563746 193.96285,7.4785156 193.16406,7.4785156 Z m -14.52343,0.8300782 c 1.09761,0 1.87218,0.2517963 2.40039,0.7050781 l 0.002,0.00195 c 0.4006,0.3413574 0.51677,0.8484397 0.65039,1.3535161 l -0.96094,0.04297 c -0.11447,-0.352567 -0.19409,-0.731852 -0.46679,-0.9667966 -0.41823,-0.3603112 -0.98641,-0.5039062 -1.63868,-0.5039062 -0.62832,0 -1.14845,0.094208 -1.54101,0.4140625 h -0.002 l -0.002,0.00195 c -0.3375,0.2801923 -0.54297,0.7073533 -0.54297,1.1445313 0,0.41613 0.19649,0.824041 0.51563,1.091797 4.7e-4,3.92e-4 -4.7e-4,0.0016 0,0.002 0.32905,0.280633 0.82504,0.523061 1.60351,0.861328 h 0.002 c 1.13346,0.488331 1.85685,0.918228 2.04883,1.107422 v 0.002 h 0.002 c 0.37557,0.364633 0.55273,0.792285 0.55273,1.398438 0,0.751813 -0.27162,1.345291 -0.88672,1.896484 -0.58676,0.5254 -1.42057,0.810547 -2.58593,0.810547 -0.80503,0 -1.47765,-0.135236 -2.03321,-0.386719 h -0.002 c -0.54808,-0.255116 -0.88859,-0.577629 -1.0918,-0.980469 -0.15354,-0.304395 -0.17952,-0.698128 -0.21875,-1.082031 l 1.01172,-0.05273 c 0.0557,0.390289 0.0745,0.805403 0.30078,1.070312 0.4441,0.523085 1.16577,0.707032 2.04883,0.707032 0.73416,0 1.33234,-0.114926 1.77539,-0.470704 0.39056,-0.313631 0.63867,-0.777162 0.63867,-1.265624 0,-0.432578 -0.21462,-0.850003 -0.54882,-1.13086 -0.31369,-0.27106 -0.76177,-0.4691 -1.55079,-0.810547 -0.76004,-0.330843 -1.31082,-0.606829 -1.63085,-0.804687 -0.29153,-0.186874 -0.51171,-0.415547 -0.67774,-0.707031 -0.15747,-0.276456 -0.24219,-0.605261 -0.24219,-1.017579 0,-0.722377 0.23626,-1.257225 0.75391,-1.7285154 0.49438,-0.4501125 1.23891,-0.703125 2.31641,-0.703125 z m 29.15429,0 c 1.13604,0 1.97886,0.3322148 2.64453,1.0058593 h 0.002 c 0.66864,0.6726164 1.0039,1.5398119 1.0039,2.7109379 0,0.978986 -0.22869,1.920637 -0.69336,2.845703 -0.46144,0.918655 -1.07038,1.599381 -1.84179,2.082031 -0.77204,0.483038 -1.63406,0.724609 -2.62696,0.724609 -0.85863,0 -1.53322,-0.190126 -2.07226,-0.550781 -0.56587,-0.378601 -0.93981,-0.821863 -1.16406,-1.351562 -0.24093,-0.573229 -0.35743,-1.136106 -0.35743,-1.705078 0,-0.542447 0.0822,-1.124537 0.25,-1.744141 v -0.002 c 0.21847,-0.826761 0.54606,-1.530053 0.97852,-2.121094 l 0.002,-0.002 c 0.43385,-0.5860278 0.9698,-1.0409403 1.62891,-1.3808595 l 0.002,-0.00195 c 0.64723,-0.3378612 1.38716,-0.5097656 2.24414,-0.5097656 z m -62.87304,0.1699218 h 2.05273 l 0.28711,6.5429684 0.94922,0.197266 3.28125,-6.7402344 h 2.04492 L 146.79297,17.5 h -0.83985 L 147.78125,9.8027344 146.84375,9.4726563 143.02148,17.5 h -1.16015 L 141.51953,9.6035156 140.5293,9.5332031 139.01367,17.5 h -0.83203 z m 14.39648,0 h 1.57422 L 157.50195,17.5 h -0.9375 l -0.33593,-2.214844 H 151.5293 L 150.32617,17.5 h -0.96484 z m 7.38281,0 h 6.40821 l -0.14063,0.6738282 h -5.36523 l -0.6875,3.2773442 H 167.25 l -0.14063,0.673828 h -5.17968 l -0.85938,3.720703 h 5.8418 L 166.76953,17.5 h -6.80859 z m 18.03907,0 h 6.875 l -0.14063,0.6738282 H 183.7207 L 181.97852,17.5 h -1.04297 l 1.75,-8.3476562 h -2.94141 z m 9.23437,0 h 4.04492 c 0.73091,0 1.27649,0.082485 1.60742,0.2070313 l 0.004,0.00195 h 0.002 c 0.32314,0.1168791 0.56787,0.3161887 0.77735,0.6542969 l 0.002,0.00195 v 0.00195 c 0.20722,0.3287042 0.32031,0.7345982 0.32031,1.2578132 0,0.752392 -0.21042,1.311199 -0.63476,1.773437 -0.40961,0.441879 -1.05446,0.746847 -2.01172,0.869141 l -1.08399,0.136719 0.81446,0.730468 c 0.21773,0.195212 0.43589,0.468029 0.64843,0.822266 0.34572,0.589175 0.76248,1.556284 1.18555,2.564453 h -1.09375 c -0.20159,-0.588456 -0.471,-1.294556 -0.92578,-2.34375 v -0.002 c -0.30173,-0.691047 -0.62613,-1.201965 -1.07422,-1.515625 l -0.004,-0.002 -0.004,-0.002 c -0.35536,-0.239664 -0.77188,-0.283203 -1.30469,-0.283203 h -1.24609 L 188.27344,17.5 h -1.04297 z m -33.85937,0.1425782 -3.59766,5.9960942 h 4.46094 z m 47.51562,0.4082031 c -1.16251,0 -2.17281,0.5882579 -2.875,1.6289061 v 0.002 h -0.002 c -0.68013,1.015261 -1.02735,2.152598 -1.02735,3.367188 0,0.789697 0.25635,1.508487 0.75782,2.064453 0.50979,0.5652 1.22846,0.863281 2.02539,0.863281 0.66527,0 1.31033,-0.226133 1.89062,-0.640625 0.60261,-0.431962 1.07811,-1.066665 1.4375,-1.86914 h -0.002 c 0.36153,-0.801223 0.55078,-1.600769 0.55078,-2.386719 0,-0.877067 -0.24769,-1.640321 -0.77148,-2.1933596 -0.512,-0.5450341 -1.21354,-0.8359375 -1.98438,-0.8359375 z m -12.75977,0.1230469 -0.76757,3.6953122 h 1.70703 c 1.12731,0 1.85929,-0.04116 2.375,-0.230468 0.44251,-0.160953 0.82043,-0.431067 1.08594,-0.796875 0.25612,-0.352879 0.40429,-0.763403 0.40429,-1.183594 0,-0.500001 -0.26065,-0.9858261 -0.68359,-1.246094 h -0.002 l -0.002,-0.00195 c -0.39193,-0.2351592 -0.80521,-0.2363281 -1.4414,-0.2363281 z m 12.75977,0.8769532 c 0.54167,0 0.92021,0.162222 1.25586,0.519531 v 0.002 h 0.002 c 0.3227,0.340053 0.49805,0.808996 0.49805,1.507813 0,0.62681 -0.14799,1.282994 -0.46094,1.976562 h -0.002 c -0.30597,0.683202 -0.67814,1.160478 -1.10547,1.466797 -0.44055,0.314675 -0.8619,0.453125 -1.30859,0.453125 -0.57026,0 -0.95445,-0.166764 -1.28321,-0.53125 -0.33708,-0.373722 -0.5,-0.809879 -0.5,-1.396484 0,-1.027598 0.28169,-1.948204 0.85938,-2.810547 0.56428,-0.835021 1.19403,-1.1875 2.04492,-1.1875 z m -11.94531,0.123047 h 1.86133 c 0.57364,0 0.94575,0.109049 0.92187,0.09375 0.16783,0.103576 0.20703,0.162351 0.20703,0.390625 0,0.199601 -0.0589,0.383477 -0.21289,0.595703 -0.14411,0.198554 -0.3356,0.341821 -0.62109,0.445312 v 0.002 h -0.002 c -0.20434,0.07501 -0.94176,0.167968 -2.02929,0.167968 h -0.47852 z m -36.16016,1.396484 0.29883,2.06836 h -1.53906 z"
           id="path6-2" />
      </g>
      <g
         id="g6"
         style="display:inline"
         transform="translate(1.2288119,-15.360149)">
        <path
           d="m 142.87094,476.68607 v -7.15821 h 2.68555 q 0.82031,0 1.31347,0.21973 0.49805,0.21484 0.77637,0.66894 0.2832,0.44922 0.2832,0.94239 0,0.45898 -0.24902,0.86426 -0.24902,0.40527 -0.75195,0.65429 0.64941,0.19043 0.99609,0.64942 0.35156,0.45898 0.35156,1.08398 0,0.50293 -0.21484,0.9375 -0.20996,0.42969 -0.52246,0.66406 -0.3125,0.23438 -0.78613,0.35645 -0.46875,0.11719 -1.15235,0.11719 z m 0.94727,-4.15039 h 1.54785 q 0.62988,0 0.90332,-0.083 0.36133,-0.10742 0.54199,-0.35645 0.18555,-0.24902 0.18555,-0.625 0,-0.35644 -0.1709,-0.625 -0.1709,-0.27344 -0.48828,-0.37109 -0.31738,-0.10254 -1.08887,-0.10254 h -1.43066 z m 0,3.30566 h 1.78222 q 0.45899,0 0.64453,-0.0342 0.32715,-0.0586 0.54688,-0.19531 0.21973,-0.13672 0.36133,-0.39551 0.1416,-0.26367 0.1416,-0.60547 0,-0.40039 -0.20508,-0.69336 -0.20508,-0.29785 -0.57129,-0.41504 -0.36133,-0.12207 -1.04492,-0.12207 h -1.65527 z m 10.86914,-1.66504 0.94726,0.23926 q -0.29785,1.16699 -1.07422,1.78222 -0.77148,0.61036 -1.88964,0.61036 -1.15723,0 -1.88477,-0.46875 -0.72266,-0.47364 -1.10352,-1.36719 -0.37597,-0.89356 -0.37597,-1.91895 0,-1.11816 0.4248,-1.94824 0.42969,-0.83496 1.21582,-1.26465 0.79102,-0.43457 1.73828,-0.43457 1.07422,0 1.80664,0.54688 0.73243,0.54687 1.02051,1.53808 l -0.93261,0.21973 q -0.24903,-0.78125 -0.72266,-1.1377 -0.47363,-0.35644 -1.19141,-0.35644 -0.82519,0 -1.38183,0.39551 -0.55176,0.3955 -0.77637,1.06445 -0.22461,0.66406 -0.22461,1.37207 0,0.91309 0.26367,1.59668 0.26856,0.67871 0.83008,1.01563 0.56152,0.33691 1.21582,0.33691 0.7959,0 1.34766,-0.45899 0.55175,-0.45898 0.74707,-1.3623 z m 2.10449,2.50977 v -7.15821 h 0.97168 l 3.75976,5.62012 v -5.62012 h 0.90821 v 7.15821 h -0.97168 l -3.75977,-5.625 v 5.625 z m 7.11914,0 v -5.18555 h 0.78613 v 0.72754 q 0.24414,-0.38086 0.64942,-0.61035 0.40527,-0.23438 0.92285,-0.23438 0.57617,0 0.94238,0.23926 0.3711,0.23926 0.52246,0.66894 0.61524,-0.9082 1.60156,-0.9082 0.77149,0 1.18653,0.42969 0.41504,0.4248 0.41504,1.31348 v 3.55957 h -0.87403 v -3.26661 q 0,-0.52734 -0.0879,-0.75683 -0.083,-0.23438 -0.30761,-0.37598 -0.22461,-0.1416 -0.52735,-0.1416 -0.54687,0 -0.9082,0.36621 -0.36133,0.36133 -0.36133,1.16211 v 3.0127 h -0.87891 v -3.36914 q 0,-0.58594 -0.21484,-0.87891 -0.21484,-0.29297 -0.70312,-0.29297 -0.3711,0 -0.68848,0.19531 -0.3125,0.19532 -0.4541,0.57129 -0.1416,0.37598 -0.1416,1.08399 v 2.69043 z m 8.00293,-2.59278 q 0,-1.44043 0.80078,-2.13379 0.66895,-0.57617 1.63086,-0.57617 1.06934,0 1.74805,0.70313 0.67871,0.69824 0.67871,1.93359 0,1.00098 -0.30274,1.57715 -0.29785,0.57129 -0.87402,0.88867 -0.57129,0.31738 -1.25,0.31738 -1.08887,0 -1.76269,-0.69824 -0.66895,-0.69824 -0.66895,-2.01172 z m 0.90332,0 q 0,0.9961 0.43457,1.49414 0.43457,0.49317 1.09375,0.49317 0.6543,0 1.08887,-0.49805 0.43457,-0.49805 0.43457,-1.51855 0,-0.96192 -0.43946,-1.45508 -0.43457,-0.49805 -1.08398,-0.49805 -0.65918,0 -1.09375,0.49316 -0.43457,0.49317 -0.43457,1.48926 z m 8.34961,2.59278 v -0.6543 q -0.49316,0.77148 -1.4502,0.77148 -0.62011,0 -1.14257,-0.34179 -0.51758,-0.3418 -0.80567,-0.95215 -0.2832,-0.61524 -0.2832,-1.41113 0,-0.77637 0.25879,-1.40625 0.25879,-0.63477 0.77637,-0.97168 0.51757,-0.33692 1.15722,-0.33692 0.46875,0 0.83496,0.2002 0.36621,0.19531 0.59571,0.51269 v -2.56836 h 0.87402 v 7.15821 z m -2.77832,-2.58789 q 0,0.99609 0.41992,1.48925 0.41992,0.49317 0.99121,0.49317 0.57617,0 0.97656,-0.46875 0.40528,-0.47364 0.40528,-1.44043 0,-1.06446 -0.41016,-1.5625 -0.41015,-0.49805 -1.01074,-0.49805 -0.58594,0 -0.98145,0.47852 -0.39062,0.47851 -0.39062,1.50879 z m 8.37402,2.58789 v -0.76172 q -0.60547,0.8789 -1.64551,0.8789 -0.45898,0 -0.85937,-0.17578 -0.39551,-0.17578 -0.59082,-0.43945 -0.19043,-0.26856 -0.26856,-0.6543 -0.0537,-0.25879 -0.0537,-0.82031 v -3.21289 h 0.87891 v 2.87598 q 0,0.68847 0.0537,0.92773 0.083,0.34668 0.35156,0.54687 0.26856,0.19532 0.66407,0.19532 0.3955,0 0.74218,-0.2002 0.34668,-0.20508 0.48828,-0.55176 0.14649,-0.35156 0.14649,-1.01562 v -2.77832 h 0.87891 v 5.18555 z m 2.14356,0 v -7.15821 h 0.8789 v 7.15821 z m 5.625,-0.63965 q -0.48828,0.41504 -0.94239,0.58593 -0.44921,0.1709 -0.96679,0.1709 -0.85449,0 -1.31348,-0.41504 -0.45898,-0.41992 -0.45898,-1.06933 0,-0.38086 0.1709,-0.69336 0.17578,-0.31738 0.4541,-0.50781 0.2832,-0.19043 0.63476,-0.28809 0.25879,-0.0684 0.78125,-0.13184 1.06446,-0.12695 1.56739,-0.30273 0.005,-0.18066 0.005,-0.22949 0,-0.53711 -0.24903,-0.75684 -0.33691,-0.29785 -1.00097,-0.29785 -0.62012,0 -0.91797,0.21973 -0.29297,0.21484 -0.43457,0.7666 l -0.85938,-0.11719 q 0.11719,-0.55176 0.38575,-0.88867 0.26855,-0.3418 0.77636,-0.52246 0.50782,-0.18555 1.17676,-0.18555 0.66406,0 1.0791,0.15625 0.41504,0.15625 0.61035,0.39551 0.19532,0.23437 0.27344,0.5957 0.0439,0.22461 0.0439,0.81055 v 1.17187 q 0,1.22559 0.0537,1.55274 0.0586,0.32226 0.22461,0.62012 h -0.91797 q -0.13672,-0.27344 -0.17578,-0.63965 z m -0.0732,-1.96289 q -0.47852,0.19531 -1.43555,0.33203 -0.54199,0.0781 -0.7666,0.17578 -0.22461,0.0977 -0.34668,0.28809 -0.12207,0.18554 -0.12207,0.41503 0,0.35157 0.26367,0.58594 0.26855,0.23438 0.78125,0.23438 0.50781,0 0.90332,-0.21973 0.39551,-0.22461 0.58105,-0.61035 0.14161,-0.29785 0.14161,-0.87891 z m 2.24121,2.60254 v -5.18555 h 0.79101 v 0.78613 q 0.30274,-0.55176 0.55664,-0.72754 0.25879,-0.17578 0.56641,-0.17578 0.44433,0 0.90332,0.2832 l -0.30274,0.81543 q -0.32226,-0.19043 -0.64453,-0.19043 -0.28808,0 -0.51757,0.17579 -0.2295,0.17089 -0.32715,0.47851 -0.14649,0.46875 -0.14649,1.02539 v 2.71485 z"
           id="text6"
           style="font-size:10px;font-family:Arial;text-anchor:middle;fill:#f77d24;stroke:#e78b14;stroke-width:0.6"
           aria-label="BCNmodular" />
      </g>
    </g>
  </g>
</svg>
